<svg width="208" height="408" viewBox="0 0 208 408" fill="none" xmlns="http://www.w3.org/2000/svg">
<rect x="2" y="2" width="204" height="404" rx="32" stroke="white" stroke-width="4" stroke-linejoin="round"/>
<path d="M81.4411 17.6585C81.4411 14.7849 83.7706 12.4553 86.6443 12.4553H122.029C124.903 12.4553 127.232 14.7849 127.232 17.6585V17.6585C127.232 20.5322 124.903 22.8618 122.029 22.8618H86.6443C83.7706 22.8618 81.4411 20.5322 81.4411 17.6585V17.6585Z" fill="white"/>
<path d="M94.955 237.14C95.555 237.33 96.025 237.65 96.365 238.1C96.705 238.54 96.875 239.085 96.875 239.735C96.875 240.655 96.515 241.365 95.795 241.865C95.085 242.355 94.045 242.6 92.675 242.6H87.245V232.1H92.375C93.655 232.1 94.635 232.345 95.315 232.835C96.005 233.325 96.35 233.99 96.35 234.83C96.35 235.34 96.225 235.795 95.975 236.195C95.735 236.595 95.395 236.91 94.955 237.14ZM89.66 233.93V236.405H92.075C92.675 236.405 93.13 236.3 93.44 236.09C93.75 235.88 93.905 235.57 93.905 235.16C93.905 234.75 93.75 234.445 93.44 234.245C93.13 234.035 92.675 233.93 92.075 233.93H89.66ZM92.495 240.77C93.135 240.77 93.615 240.665 93.935 240.455C94.265 240.245 94.43 239.92 94.43 239.48C94.43 238.61 93.785 238.175 92.495 238.175H89.66V240.77H92.495ZM103.8 242.78C102.71 242.78 101.725 242.545 100.845 242.075C99.9747 241.605 99.2897 240.96 98.7897 240.14C98.2997 239.31 98.0547 238.38 98.0547 237.35C98.0547 236.32 98.2997 235.395 98.7897 234.575C99.2897 233.745 99.9747 233.095 100.845 232.625C101.725 232.155 102.71 231.92 103.8 231.92C104.89 231.92 105.87 232.155 106.74 232.625C107.61 233.095 108.295 233.745 108.795 234.575C109.295 235.395 109.545 236.32 109.545 237.35C109.545 238.38 109.295 239.31 108.795 240.14C108.295 240.96 107.61 241.605 106.74 242.075C105.87 242.545 104.89 242.78 103.8 242.78ZM103.8 240.71C104.42 240.71 104.98 240.57 105.48 240.29C105.98 240 106.37 239.6 106.65 239.09C106.94 238.58 107.085 238 107.085 237.35C107.085 236.7 106.94 236.12 106.65 235.61C106.37 235.1 105.98 234.705 105.48 234.425C104.98 234.135 104.42 233.99 103.8 233.99C103.18 233.99 102.62 234.135 102.12 234.425C101.62 234.705 101.225 235.1 100.935 235.61C100.655 236.12 100.515 236.7 100.515 237.35C100.515 238 100.655 238.58 100.935 239.09C101.225 239.6 101.62 240 102.12 240.29C102.62 240.57 103.18 240.71 103.8 240.71ZM113.399 234.08H110.039V232.1H119.189V234.08H115.829V242.6H113.399V234.08Z" fill="white"/>
<rect x="70" y="159" width="68" height="65.6" rx="15" fill="#D63D3D"/>
<rect x="83" y="171" width="42" height="42" rx="21" fill="white"/>
<g clip-path="url(#clip0_44_15)">
<path d="M135 191.5C135 199.854 131.681 207.866 125.774 213.774C119.866 219.681 111.854 223 103.5 223C95.1457 223 87.1335 219.681 81.2261 213.774C75.3187 207.866 72 199.854 72 191.5C72 183.146 75.3187 175.134 81.2261 169.226C87.1335 163.319 95.1457 160 103.5 160C111.854 160 119.866 163.319 125.774 169.226C131.681 175.134 135 183.146 135 191.5ZM104.63 183.255C101.567 184.531 95.4399 187.169 86.2577 191.169C84.7693 191.76 83.9858 192.343 83.9149 192.91C83.7968 193.866 84.9977 194.244 86.6318 194.76L87.3208 194.977C88.9273 195.501 91.0929 196.111 92.2151 196.134C93.2389 196.158 94.3768 195.741 95.6329 194.874C104.213 189.082 108.642 186.157 108.918 186.094C109.115 186.047 109.39 185.991 109.572 186.157C109.757 186.318 109.737 186.629 109.717 186.712C109.599 187.22 104.886 191.598 102.449 193.866C101.689 194.575 101.149 195.075 101.039 195.189C100.796 195.438 100.55 195.682 100.299 195.922C98.8026 197.363 97.6843 198.442 100.358 200.206C101.645 201.056 102.677 201.753 103.705 202.454C104.823 203.218 105.941 203.978 107.39 204.931C107.756 205.167 108.111 205.423 108.453 205.667C109.757 206.596 110.934 207.431 112.379 207.297C113.222 207.219 114.092 206.431 114.533 204.069C115.576 198.489 117.628 186.405 118.1 181.424C118.129 181.01 118.112 180.594 118.049 180.184C118.012 179.853 117.852 179.548 117.6 179.329C117.242 179.082 116.815 178.954 116.38 178.963C115.198 178.983 113.375 179.617 104.63 183.255Z" fill="#D63D3D"/>
</g>
<defs>
<clipPath id="clip0_44_15">
<rect width="52" height="52" fill="white" transform="translate(78 166)"/>
</clipPath>
</defs>
</svg>
