<svg xmlns="http://www.w3.org/2000/svg" viewBox="0 0 48 48"><g data-name="Layer 25"><path d="M11.163 40.46a10.71 10.71 0 0 0 9.288-5.235h7.098a10.71 10.71 0 0 0 9.288 5.235 10.849 10.849 0 0 0 1.228-21.631.974.974 0 0 0-.467-.131h-8.559v-.419a3.018 3.018 0 0 0-3.015-3.015h-.88V8.54a1 1 0 0 0-2 0v6.724h-.881a3.019 3.019 0 0 0-3.016 3.015v.42h-8.555a11.04 11.04 0 0 0-10.41 10.88A10.894 10.894 0 0 0 11.162 40.46Zm10.084-22.18a1.017 1.017 0 0 1 1.016-1.016h3.761a1.016 1.016 0 0 1 1.015 1.015v.419h-5.792Zm-10.506 2.418h26.096a1.665 1.665 0 0 1 .445.033.98.98 0 0 0 .25.049 8.853 8.853 0 0 1-.695 17.68 8.707 8.707 0 0 1-7.809-4.692 1 1 0 0 0-.89-.543h-8.277a1 1 0 0 0-.89.543 8.707 8.707 0 0 1-7.808 4.692 8.892 8.892 0 0 1-8.882-8.88 9.007 9.007 0 0 1 8.46-8.882Z"/><path d="M8.896 30.58h1.149v1.149a1 1 0 0 0 2 0v-1.15h1.15a1 1 0 0 0 0-2h-1.15v-1.15a1 1 0 0 0-2 0v1.15h-1.15a1 1 0 1 0 0 2zm28.364-2.703a1.93 1.93 0 1 0-1.93-1.929 1.913 1.913 0 0 0 1.93 1.929zm0-2c.061 0 .07.045 0 .142-.002 0-.156-.001-.156-.07 0-.071.15-.072.156-.072zm0 9.6a1.893 1.893 0 0 0 1.844-1.844 1.888 1.888 0 1 0-1.844 1.845zm-.127-1.97a.232.232 0 0 1 .127-.03c.07 0 .07.154.07.156a.064.064 0 0 1-.07.071c-.006 0-.156 0-.156-.071a.238.238 0 0 1 .029-.126zm-3.758-1.83a1.931 1.931 0 0 0 1.929-1.929 1.868 1.868 0 0 0-1.929-1.845 1.804 1.804 0 0 0-1.845 1.845 1.869 1.869 0 0 0 1.845 1.93zm0-2a.336.336 0 0 1 .155.062.287.287 0 0 1-.133.166.191.191 0 0 1-.093-.157.064.064 0 0 1 .071-.07zm7.685 2a1.869 1.869 0 0 0 1.844-1.929 1.804 1.804 0 0 0-1.844-1.845 1.868 1.868 0 0 0-1.93 1.845 1.931 1.931 0 0 0 1.93 1.93zm.008-1.774a.247.247 0 0 1-.158-.142.145.145 0 0 1 .022-.022.2.2 0 0 1 .145-.045c.027.01.054.02.054.054a.324.324 0 0 1-.063.155zm-20.283-4.377h6.582a1 1 0 0 0 0-2h-6.582a1 1 0 0 0 0 2zm0 4.377h2.082a1 1 0 0 0 0-2h-2.082a1 1 0 1 0 0 2zm6.582-2h-2.082a1 1 0 1 0 0 2h2.082a1 1 0 0 0 0-2z"/><path d="M11.045 36.231a6.44 6.44 0 1 0-6.441-6.441 6.449 6.449 0 0 0 6.44 6.441Zm0-10.881a4.44 4.44 0 1 1-4.441 4.44 4.446 4.446 0 0 1 4.44-4.44Z"/></g></svg>