<svg width="108" height="208" viewBox="0 0 108 208" fill="none" xmlns="http://www.w3.org/2000/svg">
<rect x="2" y="2" width="104" height="204" rx="14" stroke="white" stroke-width="4" stroke-linejoin="round"/>
<path d="M40 12C40 10.3431 41.3431 9 43 9H64C65.6569 9 67 10.3431 67 12V12C67 13.6569 65.6569 15 64 15H43C41.3431 15 40 13.6569 40 12V12Z" fill="white"/>
<path d="M48.776 123.088C49.096 123.189 49.3467 123.36 49.528 123.6C49.7093 123.835 49.8 124.125 49.8 124.472C49.8 124.963 49.608 125.341 49.224 125.608C48.8453 125.869 48.2907 126 47.56 126H44.664V120.4H47.4C48.0827 120.4 48.6053 120.531 48.968 120.792C49.336 121.053 49.52 121.408 49.52 121.856C49.52 122.128 49.4533 122.371 49.32 122.584C49.192 122.797 49.0107 122.965 48.776 123.088ZM45.952 121.376V122.696H47.24C47.56 122.696 47.8027 122.64 47.968 122.528C48.1333 122.416 48.216 122.251 48.216 122.032C48.216 121.813 48.1333 121.651 47.968 121.544C47.8027 121.432 47.56 121.376 47.24 121.376H45.952ZM47.464 125.024C47.8053 125.024 48.0613 124.968 48.232 124.856C48.408 124.744 48.496 124.571 48.496 124.336C48.496 123.872 48.152 123.64 47.464 123.64H45.952V125.024H47.464ZM53.4932 126.096C52.9119 126.096 52.3865 125.971 51.9172 125.72C51.4532 125.469 51.0879 125.125 50.8212 124.688C50.5599 124.245 50.4292 123.749 50.4292 123.2C50.4292 122.651 50.5599 122.157 50.8212 121.72C51.0879 121.277 51.4532 120.931 51.9172 120.68C52.3865 120.429 52.9119 120.304 53.4932 120.304C54.0745 120.304 54.5972 120.429 55.0612 120.68C55.5252 120.931 55.8905 121.277 56.1572 121.72C56.4239 122.157 56.5572 122.651 56.5572 123.2C56.5572 123.749 56.4239 124.245 56.1572 124.688C55.8905 125.125 55.5252 125.469 55.0612 125.72C54.5972 125.971 54.0745 126.096 53.4932 126.096ZM53.4932 124.992C53.8239 124.992 54.1225 124.917 54.3892 124.768C54.6559 124.613 54.8639 124.4 55.0132 124.128C55.1679 123.856 55.2452 123.547 55.2452 123.2C55.2452 122.853 55.1679 122.544 55.0132 122.272C54.8639 122 54.6559 121.789 54.3892 121.64C54.1225 121.485 53.8239 121.408 53.4932 121.408C53.1625 121.408 52.8639 121.485 52.5972 121.64C52.3305 121.789 52.1199 122 51.9652 122.272C51.8159 122.544 51.7412 122.853 51.7412 123.2C51.7412 123.547 51.8159 123.856 51.9652 124.128C52.1199 124.4 52.3305 124.613 52.5972 124.768C52.8639 124.917 53.1625 124.992 53.4932 124.992ZM58.6131 121.456H56.8211V120.4H61.7011V121.456H59.9091V126H58.6131V121.456Z" fill="white"/>
<rect x="35" y="79" width="37" height="36" rx="7" fill="#D63D3D"/>
<rect x="42.0465" y="85.5044" width="22.7655" height="22.7655" rx="11.3827" fill="#0E0E0E"/>
<g clip-path="url(#clip0_44_15)">
<path d="M70.7885 96.7308C70.7885 101.229 68.9376 105.543 65.6431 108.724C62.3486 111.905 57.8803 113.692 53.2212 113.692C48.562 113.692 44.0937 111.905 40.7992 108.724C37.5047 105.543 35.6538 101.229 35.6538 96.7308C35.6538 92.2323 37.5047 87.9181 40.7992 84.7371C44.0937 81.5562 48.562 79.7692 53.2212 79.7692C57.8803 79.7692 62.3486 81.5562 65.6431 84.7371C68.9376 87.9181 70.7885 92.2323 70.7885 96.7308ZM53.8514 92.2911C52.143 92.978 48.7261 94.3986 43.6052 96.5527C42.7752 96.8707 42.3382 97.1845 42.2987 97.4898C42.2328 98.005 42.9026 98.2085 43.8139 98.4863L44.1981 98.6029C45.0941 98.8849 46.3018 99.2135 46.9277 99.2262C47.4986 99.239 48.1332 99.0142 48.8337 98.5478C53.6186 95.429 56.089 93.8537 56.2427 93.8197C56.3525 93.7943 56.5062 93.7646 56.6073 93.8537C56.7105 93.9406 56.6995 94.1081 56.6885 94.1526C56.6226 94.4261 53.9941 96.7838 52.6348 98.005C52.211 98.3866 51.9102 98.6559 51.8487 98.7174C51.7133 98.851 51.5757 98.9825 51.4359 99.1117C50.6014 99.8877 49.9778 100.469 51.4688 101.419C52.1869 101.876 52.7622 102.252 53.3353 102.629C53.959 103.04 54.5826 103.45 55.3907 103.963C55.5949 104.09 55.7926 104.228 55.9836 104.359C56.7105 104.86 57.367 105.309 58.1729 105.237C58.6429 105.195 59.1282 104.771 59.3741 103.498C59.956 100.494 61.1001 93.9872 61.3636 91.3052C61.3797 91.0822 61.3701 90.8582 61.3351 90.6373C61.3144 90.4591 61.225 90.2948 61.0847 90.1772C60.8849 90.0441 60.6467 89.9751 60.404 89.9801C59.7452 89.9907 58.7285 90.332 53.8514 92.2911Z" fill="#D63D3D"/>
</g>
<defs>
<clipPath id="clip0_44_15">
<rect width="29" height="28" fill="white" transform="translate(39 83)"/>
</clipPath>
</defs>
</svg>
