<svg width="658" height="658" viewBox="0 0 658 658" fill="none" xmlns="http://www.w3.org/2000/svg">
<path d="M36.7696 110.309L547.301 620.84C567.608 641.147 600.532 641.147 620.84 620.84C641.147 600.533 641.147 567.608 620.84 547.301L110.309 36.7696C90.0014 16.4624 57.0768 16.4624 36.7696 36.7696C16.4623 57.0769 16.4623 90.0015 36.7696 110.309Z" fill="#0E0E0E"/>
<path d="M547.301 36.7697L36.7696 547.301C16.4623 567.608 16.4623 600.533 36.7696 620.84C57.0768 641.147 90.0014 641.147 110.309 620.84L620.84 110.309C641.147 90.0015 641.147 57.0769 620.84 36.7697C600.532 16.4624 567.608 16.4624 547.301 36.7697Z" fill="#0E0E0E"/>
</svg>
