<svg width="1323" height="1089" viewBox="0 0 1323 1089" fill="none" xmlns="http://www.w3.org/2000/svg">
<rect width="1323" height="1089" fill="white"/>
<path d="M1007 232L285 232C256.281 232 233 255.281 233 284C233 312.719 256.281 336 285 336L1007 336C1035.72 336 1059 312.719 1059 284C1059 255.281 1035.72 232 1007 232Z" fill="#0E0E0E"/>
<path d="M1007 722H285C256.281 722 233 745.281 233 774C233 802.719 256.281 826 285 826H1007C1035.72 826 1059 802.719 1059 774C1059 745.281 1035.72 722 1007 722Z" fill="#0E0E0E"/>
<path d="M1007 477L285 477C256.281 477 233 500.281 233 529C233 557.719 256.281 581 285 581H1007C1035.72 581 1059 557.719 1059 529C1059 500.281 1035.72 477 1007 477Z" fill="#0E0E0E"/>
</svg>
