<svg id="Layer_3" data-name="Layer 3" xmlns="http://www.w3.org/2000/svg" viewBox="0 0 350 260"><defs><style>.cls-1,.cls-11,.cls-2,.cls-3{fill:none;}.cls-1,.cls-3{stroke:#63687f;}.cls-1,.cls-10,.cls-11,.cls-3,.cls-4,.cls-6{stroke-miterlimit:10;}.cls-1{stroke-width:0.75px;}.cls-10,.cls-11,.cls-2{stroke:#18b496;}.cls-2{stroke-linejoin:round;}.cls-4{stroke:#00cfff;}.cls-5{fill:#00cfff;}.cls-6{stroke:#fe18fd;}.cls-7{fill:#fe18fd;}.cls-8{fill:#fcf61a;}.cls-9{fill:#63687f;}</style></defs><title>illustr</title><polyline class="cls-1" points="77.681 79.834 129.012 148.215 79.03 125.871"/><polyline class="cls-1" points="79.03 171.908 129.012 148.215 79.03 216.596"/><polyline class="cls-1" points="20.502 174.01 79.03 125.871 20.502 123.77 77.681 79.834 20.502 174.01"/><polygon class="cls-1" points="77.681 216.596 20.502 174.01 79.03 171.908 20.502 123.77 77.681 216.596"/><g id="Group-2-Copy"><path id="Path" class="cls-2" d="M147.5906,97.3926a53.04,53.04,0,0,0,21.2717,42.5519v52.0774H200.77v-94.56H147.5906Z"/><path id="Path-2" data-name="Path" class="cls-2" d="M256.3849,128.7535c0-17.3146-13.0047-31.3609-29-31.3609H200.8891l30.0428,31.3609-25.87,26.9106-4.2422,4.3808h6.05a55.5413,55.5413,0,0,0,50.21,31.7782V161.505a25.1174,25.1174,0,0,1-15.6472-5.4236A31.5906,31.5906,0,0,0,256.3849,128.7535Z"/></g><line class="cls-3" x1="129.9932" y1="148.2655" x2="159.6676" y2="148.2655"/><path class="cls-3" d="M331.1417,197.8212H307.16a2.4778,2.4778,0,0,1-2.4778-2.4778V163.4528a2.4778,2.4778,0,0,1,2.4778-2.4778h17.881a1.9906,1.9906,0,0,1,1.4077.5831l6.5882,6.5882a1.9909,1.9909,0,0,1,.5831,1.4077v25.7894A2.4778,2.4778,0,0,1,331.1417,197.8212Z"/><rect class="cls-4" x="299.8351" y="174.8977" width="27.6318" height="14.1653" rx="1.9821"/><path class="cls-5" d="M307.169,182.446v2.3h-.7744v-5.873h2.166a2.1757,2.1757,0,0,1,1.5107.4922,1.6678,1.6678,0,0,1,.5469,1.3027,1.65,1.65,0,0,1-.5342,1.3174,2.2766,2.2766,0,0,1-1.5312.4609Zm0-.6328h1.3916a1.3922,1.3922,0,0,0,.9521-.293,1.0709,1.0709,0,0,0,.3311-.8467,1.1078,1.1078,0,0,0-.3311-.8408,1.3039,1.3039,0,0,0-.9072-.3271H307.169Z"/><path class="cls-5" d="M316.12,184.7458h-.7784l-2.957-4.5264v4.5264h-.7783v-5.873h.7783l2.9649,4.5459v-4.5459h.7705Z"/><path class="cls-5" d="M321.833,183.9753a1.7973,1.7973,0,0,1-.833.64,3.3791,3.3791,0,0,1-1.2451.2119,2.4123,2.4123,0,0,1-1.2744-.3369,2.2459,2.2459,0,0,1-.8613-.9581,3.3022,3.3022,0,0,1-.3125-1.44v-.5127a3.0845,3.0845,0,0,1,.6191-2.0566,2.1566,2.1566,0,0,1,1.74-.7305,2.2311,2.2311,0,0,1,1.48.47,2.05,2.05,0,0,1,.6865,1.333h-.7744a1.2809,1.2809,0,0,0-1.3877-1.1689,1.37,1.37,0,0,0-1.1806.5469,2.67,2.67,0,0,0-.4053,1.584v.48a2.502,2.502,0,0,0,.4522,1.5733,1.4632,1.4632,0,0,0,1.2216.583,2.698,2.698,0,0,0,.7627-.0967,1.1785,1.1785,0,0,0,.541-.3262v-1.3154h-1.3593v-.6338h2.13Z"/><path class="cls-3" d="M332.1429,127.3262H308.1608a2.4778,2.4778,0,0,1-2.4778-2.4778V92.9578a2.4777,2.4777,0,0,1,2.4778-2.4778h17.8809a1.9908,1.9908,0,0,1,1.4077.583l6.5882,6.5883a1.99,1.99,0,0,1,.5831,1.4076v25.79A2.4778,2.4778,0,0,1,332.1429,127.3262Z"/><rect class="cls-6" x="300.1247" y="104.4026" width="27.6318" height="14.1653" rx="1.9821"/><path class="cls-7" d="M308.4434,111.6335a3.6242,3.6242,0,0,1-1.45-.7041,1.3417,1.3417,0,0,1-.4541-1.03,1.4233,1.4233,0,0,1,.5547-1.1474,2.2042,2.2042,0,0,1,1.4424-.4541,2.4141,2.4141,0,0,1,1.0791.2334,1.7714,1.7714,0,0,1,.7344.6465,1.6439,1.6439,0,0,1,.26.8984h-.7783a1.0763,1.0763,0,0,0-.3389-.84,1.3791,1.3791,0,0,0-.956-.3046,1.4135,1.4135,0,0,0-.8936.2519.8422.8422,0,0,0-.32.7012.757.757,0,0,0,.3047.6084,2.9826,2.9826,0,0,0,1.0361.4541,4.8227,4.8227,0,0,1,1.1455.4551,1.7321,1.7321,0,0,1,.6133.5781,1.4738,1.4738,0,0,1,.2.7793,1.3735,1.3735,0,0,1-.5566,1.1435,2.3755,2.3755,0,0,1-1.4893.43,2.7639,2.7639,0,0,1-1.1289-.2324,1.8986,1.8986,0,0,1-.8086-.6348,1.554,1.554,0,0,1-.2851-.916h.7793a1.0128,1.0128,0,0,0,.3925.8408,1.6563,1.6563,0,0,0,1.0508.3086,1.5211,1.5211,0,0,0,.94-.25.8125.8125,0,0,0,.3272-.6816.8.8,0,0,0-.3027-.668A3.4954,3.4954,0,0,0,308.4434,111.6335Z"/><path class="cls-7" d="M313.5586,113.2233l1.6778-4.8447h.8476l-2.1787,5.8731H313.22l-2.1739-5.8731h.8428Z"/><path class="cls-7" d="M321.1543,113.4812a1.7971,1.7971,0,0,1-.833.64,3.3794,3.3794,0,0,1-1.2451.2119,2.4123,2.4123,0,0,1-1.2744-.3369,2.2451,2.2451,0,0,1-.8613-.958,3.3011,3.3011,0,0,1-.3125-1.44v-.5117a3.0919,3.0919,0,0,1,.6191-2.0586,2.1586,2.1586,0,0,1,1.74-.73,2.2312,2.2312,0,0,1,1.4805.47,2.05,2.05,0,0,1,.6865,1.334H320.38a1.281,1.281,0,0,0-1.3877-1.17,1.37,1.37,0,0,0-1.1806.5468,2.6721,2.6721,0,0,0-.4053,1.584v.48a2.5023,2.5023,0,0,0,.4521,1.5732,1.4631,1.4631,0,0,0,1.2217.583,2.6987,2.6987,0,0,0,.7627-.0966,1.1785,1.1785,0,0,0,.541-.3262v-1.3154h-1.3593v-.6338h2.13Z"/><circle class="cls-7" cx="158.8445" cy="79.7515" r="2.8751"/><circle class="cls-5" cx="149.2233" cy="79.7515" r="2.8751"/><circle class="cls-8" cx="168.4656" cy="79.7515" r="2.8751"/><circle class="cls-9" cx="178.0867" cy="79.7515" r="2.8751"/><circle class="cls-6" cx="78.3557" cy="80.2208" r="7.8089"/><circle class="cls-10" cx="126.988" cy="148.5524" r="7.8089"/><circle class="cls-6" cx="78.3557" cy="125.7752" r="7.8089"/><circle class="cls-6" cx="78.3557" cy="171.3297" r="7.8089"/><circle class="cls-4" cx="19.8274" cy="123.6739" r="7.8089"/><circle class="cls-4" cx="19.8274" cy="173.431" r="7.8089"/><circle class="cls-6" cx="78.3557" cy="216.8841" r="7.8089"/><rect class="cls-11" x="143.366" y="93.4001" width="9.221" height="9.221"/><rect class="cls-11" x="196.7675" y="93.4001" width="9.221" height="9.221"/><rect class="cls-11" x="225.5677" y="124.4476" width="9.221" height="9.221"/><rect class="cls-11" x="164.261" y="187.4114" width="9.221" height="9.221"/><rect class="cls-11" x="196.1594" y="187.4114" width="9.221" height="9.221"/><rect class="cls-11" x="196.1594" y="155.2346" width="9.221" height="9.221"/><rect class="cls-11" x="252.4699" y="156.9289" width="9.221" height="9.221"/><rect class="cls-11" x="252.4699" y="187.4114" width="9.221" height="9.221"/><polyline class="cls-3" points="293.855 111.987 279.462 111.987 279.462 181.661 295.911 181.661"/><line class="cls-3" x1="261.8377" y1="145.8838" x2="279.4616" y2="145.8838"/></svg>